<?xml version="1.0" encoding="UTF-8"?>
<svg id="Layer_2" data-name="Layer 2" xmlns="http://www.w3.org/2000/svg" viewBox="0 0 2882.5 511.18">
  <defs>
    <style>
      .cls-1 {
        fill: #073343;
      }
    </style>
  </defs>
  <g id="Layer_1-2" data-name="Layer 1">
    <g>
      <g>
        <path class="cls-1" d="M395.02,366.97c38.95,40.78,70.33,89.46,91.34,144.2-22.75-52.62-57.69-97.7-100.64-132.49-1.44-1.16-2.89-2.32-4.34-3.45-3.78-2.97-7.63-5.86-11.52-8.67-1.56-1.12-3.12-2.22-4.69-3.32-75.93-52.81-172.54-75.61-270.27-55.5-16.4,3.37-32.29,7.85-47.63,13.33l-17.82-86.62c128.19-14.8,251.95,28.22,342.54,110.12,1.89,1.7,3.77,3.43,5.63,5.18,4.24,3.97,8.41,8.03,12.48,12.17,1.65,1.67,3.29,3.35,4.91,5.06Z"/>
        <path class="cls-1" d="M404.78,302.04c4.85,7.35,9.52,14.83,14.02,22.43,91.99-107.44,233.76-167.09,381.41-150.03l-17.82,86.61c-15.33-5.46-31.22-9.95-47.63-13.32-115.65-23.8-229.7,12.47-309.79,87.47,30.11,53.67,51.37,113,61.77,175.98-12.61-60.63-37.87-116.63-72.88-165.12-1.99-2.76-4.01-5.49-6.07-8.2-4.58-6.06-9.33-11.99-14.23-17.79-2.44-2.9-4.93-5.78-7.46-8.62-79.6-89.48-195.63-145.86-324.82-145.86-20.79,0-41.26,1.47-61.28,4.28V60.01c164.14,14.47,307.29,102.09,396.64,230.04C480.02,129.93,640.97,16.64,829.67,0v109.87c-20.02-2.82-40.49-4.29-61.28-4.29-152.1,0-285.95,78.14-363.6,196.46Z"/>
      </g>
      <g>
        <path class="cls-1" d="M1005.86,252.58v-47.21l-47.21-86.05h23.42l34.46,63.77h.95l34.46-63.77h23.04l-47.21,86.05v47.21h-21.89Z"/>
        <path class="cls-1" d="M1147.31,254.86c-12.95,0-24.72-3.01-35.31-9.04-10.6-6.03-18.94-14.31-25.03-24.84-6.09-10.53-9.14-22.21-9.14-35.03s3.05-24.49,9.14-35.03c6.09-10.53,14.44-18.81,25.03-24.84,10.6-6.03,22.37-9.04,35.31-9.04s24.71,3.02,35.31,9.04c10.59,6.03,18.94,14.31,25.03,24.84,6.09,10.54,9.14,22.21,9.14,35.03s-3.05,24.5-9.14,35.03c-6.09,10.54-14.44,18.82-25.03,24.84-10.6,6.03-22.37,9.04-35.31,9.04ZM1147.31,233.92c8.88,0,16.88-2.06,23.99-6.19,7.11-4.12,12.66-9.8,16.66-17.04s6-15.48,6-24.75-2-17.51-6-24.75-9.55-12.91-16.66-17.04c-7.11-4.12-15.1-6.19-23.99-6.19s-16.88,2.06-23.99,6.19c-7.11,4.13-12.66,9.8-16.66,17.04s-6,15.49-6,24.75,2,17.51,6,24.75,9.55,12.92,16.66,17.04c7.11,4.13,15.1,6.19,23.99,6.19Z"/>
        <path class="cls-1" d="M1292.56,254.86c-11.04,0-20.62-2.25-28.75-6.76-8.12-4.5-14.34-10.98-18.66-19.42-4.32-8.44-6.47-18.43-6.47-29.98v-79.38h21.89v79.38c0,7.49,1.24,13.87,3.71,19.13,2.47,5.27,6.12,9.27,10.95,11.99,4.82,2.73,10.59,4.09,17.32,4.09,10.15,0,17.99-3.08,23.51-9.23,5.52-6.15,8.28-14.82,8.28-25.99v-79.38h21.89v79.38c0,11.55-2.16,21.54-6.47,29.98-4.32,8.44-10.5,14.91-18.56,19.42-8.06,4.5-17.61,6.76-28.65,6.76Z"/>
        <path class="cls-1" d="M1407.16,252.58v-112.32h-42.83v-20.94h107.56v20.94h-42.83v112.32h-21.89Z"/>
        <path class="cls-1" d="M1492.82,252.58V119.32h21.89v133.26h-21.89ZM1502.15,195.47v-20.94h88.33v20.94h-88.33ZM1579.44,252.58V119.32h21.89v133.26h-21.89Z"/>
        <path class="cls-1" d="M1681.29,252.58V119.32h54.83c9.52,0,17.99,1.81,25.41,5.43,7.42,3.62,13.2,8.66,17.32,15.13,4.12,6.47,6.19,13.9,6.19,22.27s-2.06,15.8-6.19,22.27c-4.13,6.47-9.9,11.52-17.32,15.13-7.42,3.62-15.9,5.43-25.41,5.43h-45.88v-20.94h45.88c5.58,0,10.34-.82,14.28-2.48,3.93-1.65,6.88-4.12,8.85-7.42,1.97-3.3,2.95-7.3,2.95-11.99,0-7.11-2.22-12.53-6.66-16.28-4.44-3.74-10.92-5.62-19.42-5.62h-32.93v112.32h-21.89ZM1762.38,252.58l-38.65-57.68h24.75l39.41,57.68h-25.51Z"/>
        <path class="cls-1" d="M1812.64,252.58V119.32h94.23v20.94h-72.34v91.38h73.29v20.94h-95.18ZM1821.96,195.47v-20.94h74.43v20.94h-74.43Z"/>
        <path class="cls-1" d="M1977.88,254.86c-17.77,0-31.51-3.68-41.21-11.04-9.71-7.36-14.88-18.08-15.51-32.17h23.42c.25,7.61,3.17,13.39,8.76,17.32,5.58,3.94,13.77,5.9,24.56,5.9,7.87,0,14.34-1.52,19.42-4.57,5.07-3.05,7.61-7.36,7.61-12.95,0-4.44-1.43-8.06-4.28-10.85-2.86-2.79-6.41-5.01-10.66-6.66-4.25-1.65-10.18-3.49-17.8-5.52-9.52-2.54-17.32-5.07-23.42-7.61-6.09-2.54-11.26-6.38-15.51-11.52-4.25-5.14-6.38-11.9-6.38-20.27,0-7.36,2.03-13.93,6.09-19.7,4.06-5.77,9.74-10.25,17.04-13.42,7.3-3.17,15.77-4.76,25.41-4.76,15.48,0,27.7,3.43,36.65,10.28,8.95,6.85,13.86,16.56,14.75,29.13h-23.42c-.51-6.6-3.02-11.48-7.52-14.66-4.51-3.17-11.14-4.76-19.89-4.76-8,0-14.37,1.52-19.13,4.57-4.76,3.05-7.14,7.17-7.14,12.37,0,4.32,1.43,7.87,4.28,10.66,2.86,2.79,6.41,4.98,10.66,6.57,4.25,1.59,10.06,3.4,17.42,5.43,9.77,2.54,17.67,5.08,23.7,7.61,6.03,2.54,11.2,6.41,15.52,11.61,4.31,5.21,6.47,12.06,6.47,20.56,0,7.61-2.13,14.34-6.38,20.18-4.25,5.84-10.15,10.35-17.7,13.52-7.55,3.17-16.15,4.76-25.79,4.76Z"/>
        <path class="cls-1" d="M2053.45,252.58V119.32h94.23v20.94h-72.34v91.38h73.29v20.94h-95.18ZM2062.78,195.47v-20.94h74.43v20.94h-74.43Z"/>
        <path class="cls-1" d="M2161.01,252.58l49.69-133.26h26.27l49.5,133.26h-22.27l-40.17-110.41h-.95l-40.17,110.41h-21.89ZM2183.09,220.21l6.47-19.99h68.34l6.47,19.99h-81.29Z"/>
        <path class="cls-1" d="M2306.45,252.58V119.32h54.83c9.52,0,17.99,1.81,25.41,5.43,7.42,3.62,13.2,8.66,17.32,15.13,4.12,6.47,6.19,13.9,6.19,22.27s-2.06,15.8-6.19,22.27c-4.13,6.47-9.9,11.52-17.32,15.13-7.42,3.62-15.9,5.43-25.41,5.43h-45.88v-20.94h45.88c5.58,0,10.34-.82,14.28-2.48,3.93-1.65,6.88-4.12,8.85-7.42,1.97-3.3,2.95-7.3,2.95-11.99,0-7.11-2.22-12.53-6.66-16.28-4.44-3.74-10.92-5.62-19.42-5.62h-32.93v112.32h-21.89ZM2387.54,252.58l-38.65-57.68h24.75l39.41,57.68h-25.51Z"/>
        <path class="cls-1" d="M2495.86,254.86c-12.95,0-24.72-3.01-35.31-9.04-10.6-6.03-18.94-14.31-25.03-24.84-6.09-10.53-9.14-22.21-9.14-35.03s3.05-24.49,9.14-35.03c6.09-10.53,14.44-18.81,25.03-24.84,10.6-6.03,22.37-9.04,35.31-9.04,10.66,0,20.37,2.09,29.13,6.28s16.09,9.93,21.99,17.23c5.9,7.3,10.12,15.45,12.66,24.46h-23.42c-2.16-5.46-5.17-10.21-9.04-14.28-3.87-4.06-8.44-7.2-13.71-9.42-5.27-2.22-11.14-3.33-17.61-3.33-8.88,0-16.88,2.06-23.99,6.19-7.11,4.13-12.66,9.8-16.66,17.04s-6,15.49-6,24.75,2,17.51,6,24.75,9.55,12.92,16.66,17.04c7.11,4.13,15.1,6.19,23.99,6.19,6.73,0,12.85-1.24,18.37-3.71,5.52-2.47,10.21-5.9,14.09-10.28,3.87-4.38,6.82-9.36,8.85-14.94h23.42c-2.67,9.77-7.04,18.44-13.13,25.98-6.09,7.55-13.58,13.42-22.46,17.61-8.88,4.19-18.59,6.28-29.13,6.28Z"/>
        <path class="cls-1" d="M2584.38,252.58V119.32h21.89v133.26h-21.89ZM2593.71,195.47v-20.94h88.33v20.94h-88.33ZM2671,252.58V119.32h21.89v133.26h-21.89Z"/>
        <path class="cls-1" d="M2798.16,254.86c-7.61,0-14.28-1.52-19.99-4.57-5.71-3.05-10.09-7.14-13.14-12.28-3.05-5.14-4.57-10.76-4.57-16.85,0-4.57.7-8.72,2.09-12.47,1.4-3.74,3.71-7.55,6.95-11.42,3.24-3.87,7.83-8.28,13.8-13.23l12.75-10.66,10.47,15.8-12.56,10.85c-4.06,3.55-6.85,6.7-8.38,9.42-1.52,2.73-2.28,6.12-2.28,10.18s1.46,7.3,4.38,10.09c2.92,2.79,6.79,4.19,11.61,4.19,4.31,0,8.22-.98,11.71-2.95,3.49-1.97,7.39-5.36,11.71-10.18l8-9.14,13.52,15.23-9.33,10.28c-5.97,6.6-11.74,11.2-17.32,13.8-5.59,2.6-12.06,3.9-19.42,3.9ZM2780.84,169.2c-3.05-3.43-5.4-6.95-7.04-10.57-1.65-3.62-2.47-7.58-2.47-11.9,0-5.46,1.33-10.44,4-14.94,2.67-4.5,6.63-8.09,11.9-10.76,5.27-2.67,11.71-4,19.32-4,6.85,0,12.75,1.3,17.7,3.9,4.95,2.6,8.69,6.12,11.23,10.57,2.54,4.44,3.81,9.27,3.81,14.47s-1.05,9.71-3.14,13.9-5.81,8.57-11.14,13.14l-15.04,13.14-10.66-15.61,10.85-9.14c3.05-2.41,5.17-4.76,6.38-7.04,1.2-2.28,1.81-4.69,1.81-7.23,0-3.3-1.14-5.96-3.43-8-2.29-2.03-5.4-3.05-9.33-3.05s-7.14,1.02-9.61,3.05c-2.47,2.03-3.71,4.7-3.71,8,0,2.28.63,4.47,1.9,6.57,1.27,2.09,3.3,4.73,6.09,7.9l8.19,8.95,2.09,2.28,71.96,79.76h-26.84l-74.81-83.38ZM2846.71,223.83l-13.33-15.23,20.75-23.42h27.22l-34.65,38.64Z"/>
        <path class="cls-1" d="M970.95,430.07v-103.54h9.91v103.54h-9.91Z"/>
        <path class="cls-1" d="M1009.11,430.07v-103.54h14.05l58.57,90.82h.74v-90.82h10.21v103.54h-14.2l-58.43-90.82h-.74v90.82h-10.21Z"/>
        <path class="cls-1" d="M1121.08,430.07v-103.54h14.05l58.57,90.82h.74v-90.82h10.21v103.54h-14.2l-58.43-90.82h-.74v90.82h-10.21Z"/>
        <path class="cls-1" d="M1279.04,431.7c-9.67,0-18.49-2.32-26.48-6.95-7.99-4.63-14.3-11.02-18.93-19.15-4.64-8.14-6.95-17.23-6.95-27.29s2.32-19.15,6.95-27.29c4.63-8.14,10.95-14.52,18.93-19.15,7.99-4.63,16.81-6.95,26.48-6.95s18.64,2.32,26.62,6.95c7.99,4.64,14.3,11.02,18.93,19.15,4.63,8.13,6.95,17.23,6.95,27.29s-2.32,19.15-6.95,27.29c-4.64,8.14-10.95,14.52-18.93,19.15-7.99,4.64-16.86,6.95-26.62,6.95ZM1279.04,421.64c7.89,0,15.01-1.85,21.37-5.55s11.34-8.82,14.94-15.38c3.6-6.56,5.4-14.03,5.4-22.41s-1.8-15.85-5.4-22.41c-3.6-6.56-8.58-11.69-14.94-15.38s-13.49-5.55-21.37-5.55-14.87,1.85-21.23,5.55-11.37,8.83-15.01,15.38c-3.65,6.56-5.47,14.03-5.47,22.41s1.82,15.85,5.47,22.41c3.65,6.56,8.65,11.69,15.01,15.38s13.43,5.55,21.23,5.55Z"/>
        <path class="cls-1" d="M1380.96,430.07l-40.08-103.54h11.24l35.65,93.18h.74l35.79-93.18h10.8l-40.08,103.54h-14.05Z"/>
        <path class="cls-1" d="M1431.84,430.07l39.94-103.54h13.02l39.94,103.54h-10.65l-35.5-92.89h-.74l-35.5,92.89h-10.5ZM1448.4,400.64l2.81-9.61h53.99l2.96,9.61h-59.76Z"/>
        <path class="cls-1" d="M1556.38,430.07v-93.48h-35.2v-10.06h80.76v10.06h-35.2v93.48h-10.35Z"/>
        <path class="cls-1" d="M1620.28,430.07v-103.54h9.91v103.54h-9.91Z"/>
        <path class="cls-1" d="M1704.44,431.7c-9.67,0-18.49-2.32-26.48-6.95-7.99-4.63-14.3-11.02-18.93-19.15-4.64-8.14-6.95-17.23-6.95-27.29s2.32-19.15,6.95-27.29c4.63-8.14,10.95-14.52,18.93-19.15,7.99-4.63,16.81-6.95,26.48-6.95s18.64,2.32,26.62,6.95c7.99,4.64,14.3,11.02,18.93,19.15,4.63,8.13,6.95,17.23,6.95,27.29s-2.32,19.15-6.95,27.29c-4.64,8.14-10.95,14.52-18.93,19.15-7.99,4.64-16.86,6.95-26.62,6.95ZM1704.44,421.64c7.89,0,15.01-1.85,21.37-5.55s11.34-8.82,14.94-15.38c3.6-6.56,5.4-14.03,5.4-22.41s-1.8-15.85-5.4-22.41c-3.6-6.56-8.58-11.69-14.94-15.38s-13.49-5.55-21.37-5.55-14.87,1.85-21.23,5.55-11.37,8.83-15.01,15.38c-3.65,6.56-5.47,14.03-5.47,22.41s1.82,15.85,5.47,22.41c3.65,6.56,8.65,11.69,15.01,15.38s13.43,5.55,21.23,5.55Z"/>
        <path class="cls-1" d="M1778.98,430.07v-103.54h14.05l58.57,90.82h.74v-90.82h10.21v103.54h-14.2l-58.43-90.82h-.74v90.82h-10.21Z"/>
        <path class="cls-1" d="M1928.67,430.07v-103.54h67.3v10.06h-56.95v93.48h-10.35ZM1933.25,384.81v-10.06h53.84v10.06h-53.84Z"/>
        <path class="cls-1" d="M2056.17,431.7c-9.67,0-18.49-2.32-26.48-6.95-7.99-4.63-14.3-11.02-18.93-19.15-4.64-8.14-6.95-17.23-6.95-27.29s2.32-19.15,6.95-27.29c4.63-8.14,10.95-14.52,18.93-19.15,7.99-4.63,16.81-6.95,26.48-6.95s18.64,2.32,26.62,6.95c7.99,4.64,14.3,11.02,18.93,19.15,4.63,8.13,6.95,17.23,6.95,27.29s-2.32,19.15-6.95,27.29c-4.64,8.14-10.95,14.52-18.93,19.15-7.99,4.64-16.86,6.95-26.62,6.95ZM2056.17,421.64c7.89,0,15.01-1.85,21.37-5.55s11.34-8.82,14.94-15.38c3.6-6.56,5.4-14.03,5.4-22.41s-1.8-15.85-5.4-22.41c-3.6-6.56-8.58-11.69-14.94-15.38s-13.49-5.55-21.37-5.55-14.87,1.85-21.23,5.55-11.37,8.83-15.01,15.38c-3.65,6.56-5.47,14.03-5.47,22.41s1.82,15.85,5.47,22.41c3.65,6.56,8.65,11.69,15.01,15.38s13.43,5.55,21.23,5.55Z"/>
        <path class="cls-1" d="M2168.14,431.7c-7.99,0-14.99-1.72-21-5.18-6.02-3.45-10.63-8.33-13.83-14.64-3.21-6.31-4.81-13.7-4.81-22.19v-63.16h10.35v63.16c0,6.51,1.16,12.18,3.48,17.01,2.32,4.83,5.69,8.53,10.13,11.09,4.44,2.57,9.66,3.85,15.68,3.85,9.07,0,16.2-2.83,21.37-8.5,5.18-5.67,7.77-13.48,7.77-23.44v-63.16h10.35v63.16c0,8.48-1.6,15.88-4.81,22.19-3.21,6.31-7.79,11.19-13.76,14.64-5.97,3.45-12.94,5.18-20.93,5.18Z"/>
        <path class="cls-1" d="M2235.29,430.07v-103.54h14.05l58.57,90.82h.74v-90.82h10.21v103.54h-14.2l-58.43-90.82h-.74v90.82h-10.21Z"/>
        <path class="cls-1" d="M2347.25,430.07v-103.54h32.69c10.16,0,19.25,2.2,27.29,6.58,8.04,4.39,14.3,10.53,18.79,18.42,4.49,7.89,6.73,16.81,6.73,26.77s-2.24,18.88-6.73,26.77c-4.49,7.89-10.75,14.03-18.79,18.42-8.04,4.39-17.13,6.58-27.29,6.58h-32.69ZM2379.94,420.01c8.28,0,15.6-1.72,21.96-5.18,6.36-3.45,11.32-8.36,14.87-14.72s5.33-13.63,5.33-21.82-1.78-15.46-5.33-21.82-8.5-11.26-14.87-14.72c-6.36-3.45-13.68-5.18-21.96-5.18h-22.33v83.42h22.33Z"/>
        <path class="cls-1" d="M2438.81,430.07l39.94-103.54h13.02l39.94,103.54h-10.65l-35.5-92.89h-.74l-35.5,92.89h-10.5ZM2455.38,400.64l2.81-9.61h53.99l2.96,9.61h-59.76Z"/>
        <path class="cls-1" d="M2563.35,430.07v-93.48h-35.2v-10.06h80.76v10.06h-35.2v93.48h-10.35Z"/>
        <path class="cls-1" d="M2627.25,430.07v-103.54h9.91v103.54h-9.91Z"/>
        <path class="cls-1" d="M2711.41,431.7c-9.67,0-18.49-2.32-26.48-6.95-7.99-4.63-14.3-11.02-18.93-19.15-4.64-8.14-6.95-17.23-6.95-27.29s2.32-19.15,6.95-27.29c4.63-8.14,10.95-14.52,18.93-19.15,7.99-4.63,16.81-6.95,26.48-6.95s18.64,2.32,26.62,6.95c7.99,4.64,14.3,11.02,18.93,19.15,4.63,8.13,6.95,17.23,6.95,27.29s-2.32,19.15-6.95,27.29c-4.64,8.14-10.95,14.52-18.93,19.15-7.99,4.64-16.86,6.95-26.62,6.95ZM2711.41,421.64c7.89,0,15.01-1.85,21.37-5.55s11.34-8.82,14.94-15.38c3.6-6.56,5.4-14.03,5.4-22.41s-1.8-15.85-5.4-22.41c-3.6-6.56-8.58-11.69-14.94-15.38s-13.49-5.55-21.37-5.55-14.87,1.85-21.23,5.55-11.37,8.83-15.01,15.38c-3.65,6.56-5.47,14.03-5.47,22.41s1.82,15.85,5.47,22.41c3.65,6.56,8.65,11.69,15.01,15.38s13.43,5.55,21.23,5.55Z"/>
        <path class="cls-1" d="M2785.96,430.07v-103.54h14.05l58.57,90.82h.74v-90.82h10.21v103.54h-14.2l-58.43-90.82h-.74v90.82h-10.21Z"/>
      </g>
    </g>
  </g>
</svg>